<svg width="42" height="42" viewBox="0 0 42 42" fill="none" xmlns="http://www.w3.org/2000/svg">
<g clip-path="url(#clip0_55_566)">
<path d="M21 0.65625C9.76443 0.65625 0.65625 9.76443 0.65625 21C0.65625 32.2356 9.76443 41.3438 21 41.3438C32.2356 41.3438 41.3438 32.2356 41.3438 21C41.3438 9.76443 32.2356 0.65625 21 0.65625ZM21 4.59375C30.0671 4.59375 37.4062 11.9315 37.4062 21C37.4062 30.0671 30.0685 37.4062 21 37.4062C11.9329 37.4062 4.59375 30.0685 4.59375 21C4.59375 11.9329 11.9315 4.59375 21 4.59375ZM32.5011 15.2797L30.6525 13.4161C30.2696 13.0302 29.6463 13.0276 29.2604 13.4106L17.6651 24.9126L12.7603 19.968C12.3774 19.5821 11.7542 19.5795 11.3682 19.9624L9.50455 21.811C9.11859 22.1939 9.11605 22.8172 9.49897 23.2032L16.9459 30.7104C17.3287 31.0963 17.952 31.0989 18.3379 30.7159L32.4956 16.6719C32.8815 16.2889 32.8839 15.6657 32.5011 15.2797Z" fill="#010932"/>
</g>
<defs>
<clipPath id="clip0_55_566">
<rect width="42" height="42" fill="white"/>
</clipPath>
</defs>
</svg>
