<svg width="39" height="39" viewBox="0 0 39 39" fill="none" xmlns="http://www.w3.org/2000/svg">
<rect width="39" height="39" rx="5" fill="#010932" fill-opacity="0.05"/>
<path d="M11.8333 13.1667H28.1666C28.8666 13.1667 29.3333 12.7 29.3333 12C29.3333 11.3 28.8666 10.8333 28.1666 10.8333H11.8333C11.1333 10.8333 10.6666 11.3 10.6666 12C10.6666 12.7 11.1333 13.1667 11.8333 13.1667Z" fill="#010932"/>
<path d="M11.8333 20.1667H28.1666C28.8666 20.1667 29.3333 19.7 29.3333 19C29.3333 18.3 28.8666 17.8333 28.1666 17.8333H11.8333C11.1333 17.8333 10.6666 18.3 10.6666 19C10.6666 19.7 11.1333 20.1667 11.8333 20.1667Z" fill="#010932"/>
<path d="M11.8333 27.1667H28.1666C28.8666 27.1667 29.3333 26.7 29.3333 26C29.3333 25.3 28.8666 24.8333 28.1666 24.8333H11.8333C11.1333 24.8333 10.6666 25.3 10.6666 26C10.6666 26.7 11.1333 27.1667 11.8333 27.1667Z" fill="#010932"/>
</svg>
